<?xml version="1.0"?><!DOCTYPE svg  PUBLIC '-//W3C//DTD SVG 1.1//EN'  'http://www.w3.org/Graphics/SVG/1.1/DTD/svg11.dtd'><svg xmlns="http://www.w3.org/2000/svg" xmlns:xlink="http://www.w3.org/1999/xlink" version="1.1" id="Layer_1" width="512px" height="512px" viewBox="0 0 512 512" enable-background="new 0 0 512 512" xml:space="preserve"><g><linearGradient id="SVGID_1_" gradientUnits="userSpaceOnUse" x1="112.4858" y1="-7.0005" x2="112.4858" y2="520.9995"><stop offset="0" style="stop-color:#00FFED"/><stop offset="0.9901" style="stop-color:#9D00C6"/></linearGradient><path fill="url(#SVGID_1_)" d="M112.5,291.496c-28.578,0-51.832,23.235-51.832,51.801c0,28.564,23.254,51.805,51.832,51.805   c28.565,0,51.805-23.24,51.805-51.805C164.298,314.731,141.059,291.496,112.5,291.496z M112.5,381.501   c-21.078,0-38.228-17.14-38.228-38.204c0-21.065,17.149-38.2,38.228-38.2c21.062,0,38.198,17.139,38.2,38.2   C150.7,364.361,133.565,381.501,112.5,381.501z"/><linearGradient id="SVGID_2_" gradientUnits="userSpaceOnUse" x1="255.9272" y1="-7" x2="255.9272" y2="521"><stop offset="0" style="stop-color:#00FFED"/><stop offset="0.9901" style="stop-color:#9D00C6"/></linearGradient><path fill="url(#SVGID_2_)" d="M500.796,16.98c-0.449-3.38-3.333-5.98-6.743-5.98c-0.004,0-0.008,0-0.012,0l-196.768,0.433   c-28.988,0.048-46.374,15.092-50.278,43.866C244.743,71.898,244.615,88,245.71,104H61.709C49.514,104,40,114.372,40,126.569v146.3   l-9.089,8.881c-4.829,4.836-4.929,12.703-0.096,17.534l5.344,5.579c-1.934,3.835-3.64,8.137-4.984,12.137h-7.639   C16.705,317,11,322.18,11,329.016v28.585C11,364.433,16.705,370,23.537,370h7.621c1.309,4,2.965,8.029,4.938,11.939l-5.393,5.391   c-4.821,4.82-4.827,12.679,0,17.534l20.199,20.19c2.268,2.277,5.464,3.582,8.77,3.582c3.299,0,6.496-1.301,8.773-3.574l5.496-5.385   c3.924,1.977,8.06,3.629,12.06,4.938v7.627C86,439.074,91.34,445,98.169,445h28.589c6.828,0,12.386-5.742,12.386-12.57l0.002-7.719   c4.098-1.324,8.104-3.026,11.957-4.983l5.385,5.358c4.666,4.664,12.799,4.677,17.531-0.004l20.207-20.257   c1.116-1.121,1.961-2.825,2.562-3.825H199v36h-27.318C154.179,437,140,451.607,140,469.109v24.944c0,3.756,2.985,6.946,6.741,6.946   h218.519c3.756,0,6.741-3.19,6.741-6.946v-24.944C372,451.607,357.82,437,340.315,437H313v-36h137.291   c12.194,0,21.709-9.832,21.709-22.029v-58.683c10-7.383,15.906-18.958,18.012-34.485c5.45-40.149-1.408-78.457-8.137-115.498   c-5.563-30.617-11.265-62.274-9.686-94.247c1.032-20.911,5.982-46.86,23.598-51.577C499.086,23.595,501.245,20.368,500.796,16.98z    M61.709,118h185.21c1.125,10,2.667,21,4.375,31H53v-22.431C53,121.872,57.014,118,61.709,118z M178.095,390.432l5.661,5.662   l-18.501,18.499l-5.663-5.657c-3.476-3.479-9.127-4.31-13.457-2.001c-3.973,2.119-8.166,3.847-12.462,5.144   c-4.862,1.467-8.13,5.848-8.13,10.924L125.542,431H99v-7.978c0-5.081-3.07-9.478-7.927-10.944   c-4.197-1.269-8.315-3.009-12.401-5.159c-4.347-2.31-9.915-1.455-13.384,2.017l-5.635,5.657l-18.491-18.499l5.66-5.653   c3.576-3.563,4.397-8.955,2.039-13.423c-2.156-4.088-3.895-8.49-5.164-12.689C42.232,359.466,37.843,356,32.762,356H25v-26h7.76   c5.053,0,9.445-3.131,10.931-7.959c1.334-4.348,3.077-8.516,5.19-12.517c2.341-4.464,1.521-9.824-2.038-13.379l-5.663-5.647   l18.503-18.488l5.647,5.648c3.472,3.492,9.144,4.319,13.419,2.042c4.003-2.107,8.039-3.85,12.37-5.187   C95.951,273.031,99,268.64,99,263.587V256h27v7.587c0,5.081,3.041,9.478,7.903,10.944c4.199,1.265,8.292,3.004,12.361,5.151   c4.335,2.305,9.921,1.463,13.383-2.009l5.634-5.661l18.493,18.499l-5.68,5.665c-3.553,3.563-4.371,8.947-2.026,13.411   c2.148,4.068,3.889,8.168,5.173,12.41c1.473,4.852,5.867,8.002,10.937,8.002H200v26h-7.822c-5.085,0-9.483,3.468-10.942,8.326   c-1.297,4.302-3.026,8.586-5.13,12.531C173.742,381.258,174.558,386.897,178.095,390.432z M340.315,451   c10.003,0,17.685,8.107,17.685,18.109V487H154v-17.891c0-10.002,7.679-18.109,17.682-18.109h34.433h99.769h3.631H340.315z M213,401   h86v36h-86V401z M459,378.971c0,4.697-4.015,8.029-8.709,8.029H305.883h-99.769H194.37c-0.049,0-0.09,0.139-0.14,0.089   l-5.387-5.261c1.953-3.84,3.607-7.828,4.936-11.828h7.623c6.834,0,12.598-5.571,12.598-12.403v-28.585   c0-6.832-5.764-12.012-12.598-12.012h-7.629c-1.316-4-2.975-8.251-4.938-12.141l5.398-5.488c4.829-4.835,4.827-12.75-0.004-17.582   l-20.217-20.234c-4.693-4.661-12.869-4.665-17.525-0.004l-5.464,5.383c-3.918-1.977-8.023-3.639-12.023-4.943v-7.623   c0-6.832-5.41-12.367-12.237-12.367H98.174C91.346,242,86,247.535,86,254.367v7.631c-4,1.344-8.2,2.996-12.055,4.934l-5.533-5.381   C64.555,257.688,58,257.117,53,259.827V162h200.67c0.52,3,1.043,5.983,1.566,8.861c2.485,13.674,5.002,27.837,6.893,41.863   L226.146,213c-0.01,0-0.019,0-0.028,0c-2.836,0-7.093,0.708-11.313,4.923c-8.027,8.01-13.015,25.313-13.015,45.303   c0,41.338,15.831,66.876,41.317,66.927c0.018,0.001,0.034-0.152,0.052-0.152c0.004,0,0.008,0,0.012,0H243v0.111l193.001,0.031   c0.665,0,1.364-0.094,1.989-0.308l2.025,0.01c6.97-0.012,12.985-0.896,18.985-2.642V378.971z M242.258,316.613   c-19.779-0.828-26.864-28.001-26.864-53.461c0-18.389,4.675-31.558,9.018-35.895c0.894-0.89,1.507-1.257,1.719-1.257   c0.002,0,0.002,0,0.002,0h0.108c3.157,1,10.629,13.767,10.629,37.046c0,3.756,3.047,6.954,6.803,6.954h21.008   C263.182,290,257.915,311.678,242.258,316.613z M250.271,256c-0.655-11-2.914-21.74-6.909-29.922l20.368-0.082   c1,9.976,1.567,20.003,1.482,30.003H250.271z M476.738,283.977c-2.982,21.985-14.684,32.245-36.822,32.281l-175.449,0.324   c8.245-10.92,12.968-27.834,14.093-50.604c1.657-33.534-4.238-66.187-9.939-97.559C262.262,133.427,256.239,100,259.555,65h199.872   c-0.336,4-0.601,6.711-0.771,10.172c-1.658,33.535,4.236,66.085,9.938,97.458C475.435,210.284,481.898,245.962,476.738,283.977z    M461.527,52h-200.05c4.14-18,15.643-26.774,35.821-26.806l175.445-0.277C467.654,31.656,463.913,41,461.527,52z"/><linearGradient id="SVGID_3_" gradientUnits="userSpaceOnUse" x1="382.3633" y1="-7" x2="382.3633" y2="521"><stop offset="0" style="stop-color:#00FFED"/><stop offset="0.9901" style="stop-color:#9D00C6"/></linearGradient><path fill="url(#SVGID_3_)" d="M441.234,248H323.493c-3.756,0-6.803,3.244-6.803,7s3.047,7,6.803,7h117.741   c3.757,0,6.803-3.244,6.803-7S444.991,248,441.234,248z"/><linearGradient id="SVGID_4_" gradientUnits="userSpaceOnUse" x1="396.5698" y1="-7" x2="396.5698" y2="521"><stop offset="0" style="stop-color:#00FFED"/><stop offset="0.9901" style="stop-color:#9D00C6"/></linearGradient><path fill="url(#SVGID_4_)" d="M433.586,278h-74.032c-3.756,0-6.803,3.244-6.803,7s3.047,7,6.803,7h74.032   c3.756,0,6.802-3.244,6.802-7S437.342,278,433.586,278z"/><linearGradient id="SVGID_5_" gradientUnits="userSpaceOnUse" x1="325.3765" y1="-7" x2="325.3764" y2="521"><stop offset="0" style="stop-color:#00FFED"/><stop offset="0.9901" style="stop-color:#9D00C6"/></linearGradient><path fill="url(#SVGID_5_)" d="M334.911,278h-19.068c-3.756,0-6.803,3.244-6.803,7s3.047,7,6.803,7h19.068   c3.756,0,6.803-3.244,6.803-7S338.667,278,334.911,278z"/><linearGradient id="SVGID_6_" gradientUnits="userSpaceOnUse" x1="325.3789" y1="-7" x2="325.3789" y2="521"><stop offset="0" style="stop-color:#00FFED"/><stop offset="0.9901" style="stop-color:#9D00C6"/></linearGradient><path fill="url(#SVGID_6_)" d="M315.846,218c-3.756,0-6.802,3.244-6.802,7s3.046,7,6.802,7h19.064c3.756,0,6.803-3.244,6.803-7   s-3.047-7-6.803-7H315.846z"/><linearGradient id="SVGID_7_" gradientUnits="userSpaceOnUse" x1="396.5718" y1="-7" x2="396.5717" y2="521"><stop offset="0" style="stop-color:#00FFED"/><stop offset="0.9901" style="stop-color:#9D00C6"/></linearGradient><path fill="url(#SVGID_7_)" d="M433.59,218h-74.036c-3.756,0-6.803,3.244-6.803,7s3.047,7,6.803,7h74.036   c3.756,0,6.802-3.244,6.802-7S437.346,218,433.59,218z"/><linearGradient id="SVGID_8_" gradientUnits="userSpaceOnUse" x1="313.9087" y1="-7" x2="313.9087" y2="521"><stop offset="0" style="stop-color:#00FFED"/><stop offset="0.9901" style="stop-color:#9D00C6"/></linearGradient><path fill="url(#SVGID_8_)" d="M329.601,175.895c1.741,0,3.481-0.664,4.81-1.993c2.655-2.653,2.655-6.962,0-9.615l-26.574-26.577   l26.574-26.572c2.655-2.653,2.657-6.958,0-9.615s-6.963-2.661-9.619,0l-31.384,31.38c-1.275,1.273-1.993,3.005-1.993,4.808   c0,1.803,0.718,3.535,1.993,4.808l31.384,31.384C326.12,175.231,327.86,175.895,329.601,175.895z"/><linearGradient id="SVGID_9_" gradientUnits="userSpaceOnUse" x1="417.4531" y1="-7" x2="417.4531" y2="521"><stop offset="0" style="stop-color:#00FFED"/><stop offset="0.9901" style="stop-color:#9D00C6"/></linearGradient><path fill="url(#SVGID_9_)" d="M396.952,173.902c1.328,1.329,3.067,1.993,4.81,1.993c1.741,0,3.481-0.664,4.81-1.993l31.382-31.384   c1.275-1.273,1.993-3.005,1.993-4.808c0-1.803-0.718-3.534-1.993-4.808l-31.382-31.38c-2.657-2.657-6.963-2.657-9.619,0   c-2.655,2.653-2.655,6.962,0,9.615l26.572,26.572l-26.572,26.577C394.296,166.94,394.296,171.25,396.952,173.902z"/><linearGradient id="SVGID_10_" gradientUnits="userSpaceOnUse" x1="365.6792" y1="-7" x2="365.6792" y2="521"><stop offset="0" style="stop-color:#00FFED"/><stop offset="0.9901" style="stop-color:#9D00C6"/></linearGradient><path fill="url(#SVGID_10_)" d="M352.95,185.218c0.591,0.158,1.182,0.233,1.765,0.233c3.003,0,5.751-2.005,6.565-5.045   l21.937-81.864c0.973-3.625-1.18-7.358-4.808-8.331c-3.646-0.98-7.359,1.182-8.33,4.812l-21.937,81.864   C347.169,180.513,349.322,184.245,352.95,185.218z"/></g></svg>