<?xml version="1.0"?><!DOCTYPE svg  PUBLIC '-//W3C//DTD SVG 1.1//EN'  'http://www.w3.org/Graphics/SVG/1.1/DTD/svg11.dtd'><svg xmlns="http://www.w3.org/2000/svg" xmlns:xlink="http://www.w3.org/1999/xlink" version="1.1" id="Layer_1" width="512px" height="512px" viewBox="0 0 512 512" enable-background="new 0 0 512 512" xml:space="preserve"><g><linearGradient id="SVGID_1_" gradientUnits="userSpaceOnUse" x1="256" y1="1" x2="256" y2="501.4838"><stop offset="0" style="stop-color:#00FFED"/><stop offset="0.9901" style="stop-color:#9D00C6"/></linearGradient><path fill="url(#SVGID_1_)" d="M256,84.369c-94.64,0-171.632,76.992-171.632,171.631S161.36,427.631,256,427.631   c94.639,0,171.631-76.992,171.631-171.631S350.639,84.369,256,84.369z M386.357,167H330.44c-12.831-25-31.013-47.606-53.581-67.429   C322.229,105.581,361.581,131,386.357,167z M98.133,263H145v8.788c0,7.16,5.684,13.212,12.844,13.212h8.933   c1.503,4,3.449,9.316,5.803,13.917l-6.317,6.26c-5.056,5.056-5.06,13.456,0,18.531l8.125,8.292h-57.116   C106,311,99.189,288,98.133,263z M329.048,307.556l6.753,6.749l-21.437,21.433l-6.78-6.784c-3.659-3.615-9.537-4.45-14.004-2.053   c-4.435,2.361-9.11,4.292-13.896,5.736c-5.068,1.531-8.47,6.317-8.47,11.602L271.21,354H241v-9.959   c0-5.289-3.444-9.874-8.507-11.409c-4.696-1.417-9.411-3.359-13.972-5.76c-4.525-2.397-10.396-1.503-14.004,2.112l-6.754,6.752   l-21.436-21.437l6.748-6.745c3.723-3.714,4.572-9.339,2.119-13.988c-2.409-4.573-4.352-9.346-5.76-14.01   c-1.527-5.071-6.104-8.559-11.401-8.559H158v-30h10.034c5.253,0,9.833-3.452,11.396-8.495c1.487-4.851,3.426-9.596,5.775-14.039   c2.444-4.656,1.591-10.296-2.124-14.003l-6.757-6.758l21.44-21.434l6.745,6.734c3.607,3.632,9.471,4.516,13.992,2.124   c4.442-2.342,9.195-4.289,14.041-5.784c5.032-1.547,8.456-6.124,8.456-11.39V158h30v9.955c0,5.293,3.514,9.874,8.588,11.409   c4.668,1.408,9.409,3.347,13.958,5.74c4.51,2.413,10.407,1.539,14.042-2.092l6.762-6.753l10.397,10.386   c0.091,0.214,0.188,0.428,0.278,0.643l0.262-0.108l10.517,10.513l-6.772,6.764c-3.693,3.71-4.54,9.32-2.1,13.976   c2.401,4.553,4.34,9.322,5.768,14.041c1.543,5.056,6.124,8.527,11.4,8.527h9.9v30.155l-9.73,0.004   c-5.227,0-10.002,3.493-11.489,8.473c-1.447,4.799-3.417,9.471-5.763,13.861C324.51,298.157,325.298,303.806,329.048,307.556z    M305.179,166.195l-6.221,6.313c-4.612-2.357-8.958-4.304-13.958-5.803v-8.932c0-7.16-5.997-12.773-13.15-12.773H263v-23.494   v-16.264c20,16.934,37.084,36.372,49.664,57.416C309.922,163.016,307.191,164.186,305.179,166.195z M249,121.506V145h-8.725   c-7.152,0-13.275,5.613-13.275,12.773v8.94c-5,1.559-9.396,3.505-13.889,5.799l-6.237-6.306c-1.993-2.002-4.778-3.151-7.622-3.47   C211.838,141.664,229,122.19,249,105.243V121.506z M166.266,206.88l6.322,6.195c-2.295,4.494-4.241,8.925-5.792,13.925h-8.952   c-7.16,0-12.844,6.06-12.844,13.22V249H98.133c1.057-25,7.867-48,19.138-69h57.114l-8.127,8.321   C161.202,193.389,161.206,201.821,166.266,206.88z M206.943,345.801l6.163-6.317c4.593,2.35,9.894,4.296,13.894,5.803v8.94   c0,7.156,6.119,12.773,13.275,12.773H249v39.753c-20-16.908-37.045-36.329-49.617-57.341   C202.204,349.04,204.954,347.781,206.943,345.801z M263,367h8.847c7.152,0,12.972-5.72,12.972-12.872l0.004-8.889   c4.814-1.527,9.525-3.443,14.051-5.773l6.313,6.327c2.006,2.007,4.728,3.188,7.462,3.549C300.07,370.375,283,389.818,263,406.74   V367z M345.864,305.12l-6.31-6.306c2.318-4.494,4.26-9.206,5.799-14.047l8.802-0.004c7.156,0,12.845-5.823,12.845-12.979V263   h46.867c-1.057,25-7.867,48-19.138,69h-56.99l8.121-8.317C350.92,318.604,350.92,310.167,345.864,305.12z M367,249v-8.784   c0-7.156-5.554-13.216-12.71-13.216h-8.944c-1.511-5-3.461-9.352-5.803-13.929l6.324-6.258c5.061-5.063,5.061-13.47-0.003-18.534   l-8.116-8.28h56.981c11.271,21,18.081,44,19.138,69H367z M235.144,99.571C212.584,119.39,194.383,142,181.555,167h-55.912   C150.42,131,189.772,105.58,235.144,99.571z M125.643,345h55.914c12.828,25,31.027,47.608,53.592,67.43   C189.775,406.422,150.42,381,125.643,345z M276.85,412.43c22.563-19.821,40.771-42.43,53.6-67.43h55.908   C361.58,381,322.225,406.423,276.85,412.43z"/><linearGradient id="SVGID_2_" gradientUnits="userSpaceOnUse" x1="400.4121" y1="1" x2="400.4121" y2="501.4837"><stop offset="0" style="stop-color:#00FFED"/><stop offset="0.9901" style="stop-color:#9D00C6"/></linearGradient><path fill="url(#SVGID_2_)" d="M348.273,65.507c32.75,15.897,60.738,39.874,81.491,69.692l-17.035-4.564   c-3.644-0.977-7.362,1.183-8.335,4.814s1.183,7.362,4.814,8.335l30.452,8.157c0.589,0.158,1.183,0.233,1.764,0.233   c3.007,0,5.756-2.005,6.571-5.047l8.156-30.448c0.974-3.631-1.183-7.362-4.814-8.335c-3.639-0.969-7.361,1.183-8.334,4.814   l-3.339,12.462c-21.949-30.893-51.259-55.764-85.45-72.361c-3.382-1.638-7.453-0.229-9.094,3.153   C343.482,59.791,344.891,63.866,348.273,65.507z"/><linearGradient id="SVGID_3_" gradientUnits="userSpaceOnUse" x1="455.666" y1="1" x2="455.666" y2="501.4838"><stop offset="0" style="stop-color:#00FFED"/><stop offset="0.9901" style="stop-color:#9D00C6"/></linearGradient><path fill="url(#SVGID_3_)" d="M481.545,351.343c-0.973-3.627-4.699-5.792-8.335-4.814l-12.47,3.34   c15.783-34.463,22.666-72.281,19.941-110.184c-0.268-3.75-3.523-6.535-7.273-6.301c-3.75,0.269-6.57,3.528-6.302,7.274   c2.61,36.307-4.159,72.534-19.607,105.422l-4.563-17.029c-0.97-3.631-4.692-5.788-8.335-4.814   c-3.632,0.973-5.787,4.708-4.814,8.335l8.16,30.448c0.815,3.042,3.564,5.047,6.57,5.047c0.582,0,1.176-0.075,1.766-0.233   l30.447-8.157C480.362,358.705,482.518,354.975,481.545,351.343z"/><linearGradient id="SVGID_4_" gradientUnits="userSpaceOnUse" x1="318.874" y1="1" x2="318.874" y2="501.4838"><stop offset="0" style="stop-color:#00FFED"/><stop offset="0.9901" style="stop-color:#9D00C6"/></linearGradient><path fill="url(#SVGID_4_)" d="M374.833,431.156c-30.137,20.414-64.895,32.663-101.099,35.726l12.469-12.47   c2.654-2.658,2.654-6.966-0.005-9.625c-2.658-2.65-6.966-2.654-9.624,0.004l-22.291,22.295c-1.273,1.273-1.99,3.006-1.99,4.81   s0.717,3.537,1.994,4.814l22.291,22.287c1.329,1.326,3.069,1.99,4.811,1.99c1.74,0,3.484-0.665,4.814-1.994   c2.654-2.658,2.654-6.966-0.005-9.624l-9.127-9.125c37.735-3.562,73.932-16.509,105.396-37.823c3.109-2.104,3.924-6.337,1.815-9.45   C382.182,429.862,377.954,429.052,374.833,431.156z"/><linearGradient id="SVGID_5_" gradientUnits="userSpaceOnUse" x1="111.5879" y1="1" x2="111.5879" y2="501.4837"><stop offset="0" style="stop-color:#00FFED"/><stop offset="0.9901" style="stop-color:#9D00C6"/></linearGradient><path fill="url(#SVGID_5_)" d="M163.727,446.489c-32.749-15.896-60.735-39.871-81.488-69.687l17.027,4.563   c3.64,0.965,7.362-1.183,8.336-4.814c0.973-3.631-1.184-7.362-4.814-8.335l-30.448-8.157c-3.64-0.965-7.362,1.183-8.335,4.814   l-8.157,30.448c-0.973,3.631,1.183,7.362,4.814,8.335c0.59,0.158,1.183,0.233,1.765,0.233c3.006,0,5.756-2.006,6.57-5.048   l3.34-12.465c21.949,30.893,51.259,55.763,85.449,72.36c0.957,0.463,1.97,0.685,2.967,0.685c2.523,0,4.947-1.413,6.127-3.837   C168.517,452.205,167.108,448.13,163.727,446.489z"/><linearGradient id="SVGID_6_" gradientUnits="userSpaceOnUse" x1="56.334" y1="1" x2="56.334" y2="501.4838"><stop offset="0" style="stop-color:#00FFED"/><stop offset="0.9901" style="stop-color:#9D00C6"/></linearGradient><path fill="url(#SVGID_6_)" d="M64.501,165.916l4.563,17.028c0.814,3.042,3.564,5.047,6.57,5.047c0.582,0,1.175-0.075,1.765-0.233   c3.631-0.973,5.787-4.707,4.814-8.334l-8.161-30.448c-0.97-3.627-4.691-5.787-8.335-4.814l-30.448,8.161   c-3.631,0.973-5.787,4.708-4.813,8.335c0.973,3.631,4.699,5.792,8.334,4.814l12.471-3.343   c-15.783,34.458-22.666,72.276-19.942,110.182c0.257,3.584,3.243,6.318,6.78,6.318c0.166,0,0.328-0.004,0.494-0.016   c3.75-0.269,6.57-3.528,6.302-7.274C42.283,235.025,49.053,198.799,64.501,165.916z"/><linearGradient id="SVGID_7_" gradientUnits="userSpaceOnUse" x1="193.126" y1="1" x2="193.126" y2="501.4838"><stop offset="0" style="stop-color:#00FFED"/><stop offset="0.9901" style="stop-color:#9D00C6"/></linearGradient><path fill="url(#SVGID_7_)" d="M133.357,82.015c1.313,0,2.639-0.38,3.81-1.171c30.141-20.414,64.898-32.667,101.099-35.731   L225.797,57.58c-2.658,2.658-2.658,6.966-0.004,9.624c1.329,1.33,3.074,1.994,4.814,1.994s3.481-0.665,4.811-1.99l22.295-22.292   c1.277-1.277,1.994-3.01,1.994-4.814s-0.717-3.537-1.994-4.814l-22.295-22.291c-2.658-2.65-6.967-2.654-9.625,0.004   c-2.654,2.659-2.654,6.966,0.004,9.625l9.128,9.126c-37.732,3.563-73.926,16.51-105.393,37.826   c-3.109,2.109-3.924,6.337-1.815,9.451C129.029,80.971,131.174,82.015,133.357,82.015z"/><linearGradient id="SVGID_8_" gradientUnits="userSpaceOnUse" x1="256.085" y1="1" x2="256.0849" y2="501.4838"><stop offset="0" style="stop-color:#00FFED"/><stop offset="0.9901" style="stop-color:#9D00C6"/></linearGradient><path fill="url(#SVGID_8_)" d="M256.098,199.483c-31.175,0-56.535,25.349-56.535,56.505c0,31.16,25.36,56.509,56.535,56.509   c31.161,0,56.51-25.349,56.51-56.509C312.604,224.832,287.255,199.483,256.098,199.483z M256.098,298.889   c-23.671,0-42.928-19.245-42.928-42.901c0-23.652,19.257-42.897,42.928-42.897c23.653,0,42.898,19.245,42.902,42.897   C299,279.644,279.755,298.889,256.098,298.889z"/></g></svg>